<?xml version='1.0' encoding='UTF-8' standalone='no'?>
<svg viewBox="0 0 2480 3507" baseProfile="tiny" xmlns:cc="http://creativecommons.org/ns#" width="209.973mm" xmlns="http://www.w3.org/2000/svg" version="1.2" height="296.926mm" xmlns:xlink="http://www.w3.org/1999/xlink">
 <defs/>
 <g fill="none" stroke-width="1" stroke-linejoin="bevel" stroke-linecap="square" stroke="black" fill-rule="evenodd">
  <g fill="none" stroke-width="1" transform="matrix(1,0,0,1,0,0)" stroke-linejoin="bevel" stroke-opacity="1" stroke-linecap="square" font-size="34.375" font-weight="400" font-family="MS Shell Dlg 2" font-style="normal" stroke="#000000"/>
  <g fill="none" stroke-width="1" transform="matrix(1,0,0,1,0,0)" stroke-linejoin="bevel" stroke-opacity="1" stroke-linecap="square" font-size="34.375" font-weight="400" font-family="MS Shell Dlg 2" font-style="normal" stroke="#000000"/>
  <g fill="none" stroke-width="1" transform="matrix(11.8081,0,0,11.8081,0,0)" stroke-linejoin="bevel" stroke-opacity="1" stroke-linecap="square" font-size="34.375" font-weight="400" font-family="MS Shell Dlg 2" font-style="normal" stroke="#000000"/>
  <g fill="none" stroke-width="1" transform="matrix(0.999751,0,0,0.999751,0,0)" stroke-linejoin="bevel" stroke-opacity="1" stroke-linecap="square" font-size="34.375" font-weight="400" font-family="MS Shell Dlg 2" font-style="normal" stroke="#000000"/>
  <g fill="#ffffff" transform="matrix(0.999751,0,0,0.999751,0,0)" font-size="34.375" font-weight="400" fill-opacity="1" font-family="MS Shell Dlg 2" font-style="normal" stroke="none">
   <path d="M-2,-2 L2483,-2 L2483,3510 L-2,3510 L-2,-2" vector-effect="none" fill-rule="evenodd"/>
  </g>
  <g fill="none" stroke-width="1" transform="matrix(0.999751,0,0,0.999751,0,0)" stroke-linejoin="bevel" stroke-opacity="1" stroke-linecap="square" font-size="34.375" font-weight="400" font-family="MS Shell Dlg 2" font-style="normal" stroke="#000000"/>
  <g fill="none" stroke-width="1" transform="matrix(11.8081,0,0,11.8081,0,0)" stroke-linejoin="bevel" stroke-opacity="1" stroke-linecap="square" font-size="34.375" font-weight="400" font-family="MS Shell Dlg 2" font-style="normal" stroke="#000000"/>
  <g fill="none" stroke-width="1" transform="matrix(11.8081,0,0,11.8081,0,0)" stroke-linejoin="bevel" stroke-opacity="1" stroke-linecap="square" font-size="34.375" font-weight="400" font-family="MS Shell Dlg 2" font-style="normal" stroke="#000000"/>
  <g fill="none" stroke-width="1" transform="matrix(11.8081,0,0,11.8081,0,0)" stroke-linejoin="bevel" stroke-opacity="1" stroke-linecap="square" font-size="34.375" font-weight="400" font-family="MS Shell Dlg 2" font-style="normal" stroke="#000000"/>
  <g fill="none" stroke-width="1" transform="matrix(11.8081,0,0,11.8081,0,0)" stroke-linejoin="bevel" stroke-opacity="1" stroke-linecap="square" font-size="34.375" font-weight="400" font-family="MS Shell Dlg 2" font-style="normal" stroke="#000000"/>
  <g fill="none" stroke-width="1" transform="matrix(11.8081,0,0,11.8081,145.354,331.083)" stroke-linejoin="bevel" stroke-opacity="1" stroke-linecap="square" font-size="34.375" font-weight="400" font-family="MS Shell Dlg 2" font-style="normal" stroke="#000000"/>
  <g fill="none" stroke-width="1" transform="matrix(0.999751,0,0,0.999751,145.354,331.083)" stroke-linejoin="bevel" stroke-opacity="1" stroke-linecap="square" font-size="34.375" font-weight="400" font-family="MS Shell Dlg 2" font-style="normal" stroke="#000000"/>
  <g fill="none" stroke-width="1" transform="matrix(11.8081,0,0,11.8081,145.354,331.083)" stroke-linejoin="bevel" stroke-opacity="1" stroke-linecap="square" font-size="34.375" font-weight="400" font-family="MS Shell Dlg 2" font-style="normal" stroke="#000000"/>
  <g fill="#ffffff" transform="matrix(6.50211,0,0,6.51684,136.004,402.462)" font-size="34.375" font-weight="400" fill-opacity="1" font-family="MS Shell Dlg 2" font-style="normal" stroke="none">
   <path d="M32,-9.453 L60.938,64.373 L31.938,35.373 L2.938,64.373 L32,-9.453" vector-effect="none" fill-rule="nonzero"/>
  </g>
  <g fill="none" stroke-width="3" transform="matrix(6.50211,0,0,6.51684,136.004,402.462)" stroke-linejoin="miter" stroke-miterlimit="4" stroke-opacity="1" stroke-linecap="butt" font-size="34.375" font-weight="400" font-family="MS Shell Dlg 2" font-style="normal" stroke="#000000">
   <path d="M32,-9.453 L60.938,64.373 L31.938,35.373 L2.938,64.373 L32,-9.453" vector-effect="none" fill-rule="nonzero"/>
  </g>
  <g fill="none" transform="matrix(6.50211,0,0,6.51684,136.004,402.462)" font-size="34.375" font-weight="400" font-family="MS Shell Dlg 2" font-style="normal" stroke="none">
   <path d="M32,-9.453 L61,63.997 L32,34.997 L3,63.997 L32,-9.453" vector-effect="none" fill-rule="nonzero"/>
  </g>
  <g fill="none" stroke-width="1" transform="matrix(6.50211,0,0,6.51684,136.004,402.462)" stroke-linejoin="miter" stroke-miterlimit="4" stroke-opacity="1" stroke-linecap="square" font-size="34.375" font-weight="400" font-family="MS Shell Dlg 2" font-style="normal" stroke="#000000">
   <path d="M32,-9.453 L61,63.997 L32,34.997 L3,63.997 L32,-9.453" vector-effect="none" fill-rule="nonzero"/>
  </g>
  <g fill="none" transform="matrix(6.50211,0,0,6.51684,145.354,177.156)" font-size="34.375" font-weight="400" font-family="MS Shell Dlg 2" font-style="normal" stroke="none">
   <path d="M4,92.82 L10.74,88.929" vector-effect="none" fill-rule="nonzero"/>
  </g>
  <g fill="none" stroke-width="0.25" transform="matrix(6.50211,0,0,6.51684,145.354,177.156)" stroke-linejoin="miter" stroke-miterlimit="4" stroke-opacity="1" stroke-linecap="butt" font-size="34.375" font-weight="400" font-family="MS Shell Dlg 2" font-style="normal" stroke="#000000">
   <path d="M4,92.82 L10.74,88.929" vector-effect="none" fill-rule="nonzero"/>
  </g>
  <g fill="none" transform="matrix(6.50211,0,0,6.51684,145.354,177.156)" font-size="34.375" font-weight="400" font-family="MS Shell Dlg 2" font-style="normal" stroke="none">
   <path d="M4.603,90.7 L15,84.7" vector-effect="none" fill-rule="nonzero"/>
  </g>
  <g fill="none" stroke-width="0.25" transform="matrix(6.50211,0,0,6.51684,145.354,177.156)" stroke-linejoin="miter" stroke-miterlimit="4" stroke-opacity="1" stroke-linecap="butt" font-size="34.375" font-weight="400" font-family="MS Shell Dlg 2" font-style="normal" stroke="#000000">
   <path d="M4.603,90.7 L15,84.7" vector-effect="none" fill-rule="nonzero"/>
  </g>
  <g fill="none" transform="matrix(6.50211,0,0,6.51684,145.354,177.156)" font-size="34.375" font-weight="400" font-family="MS Shell Dlg 2" font-style="normal" stroke="none">
   <path d="M3,95.17 L7,92.861" vector-effect="none" fill-rule="nonzero"/>
  </g>
  <g fill="none" stroke-width="0.25" transform="matrix(6.50211,0,0,6.51684,145.354,177.156)" stroke-linejoin="miter" stroke-miterlimit="4" stroke-opacity="1" stroke-linecap="butt" font-size="34.375" font-weight="400" font-family="MS Shell Dlg 2" font-style="normal" stroke="#000000">
   <path d="M3,95.17 L7,92.861" vector-effect="none" fill-rule="nonzero"/>
  </g>
  <g fill="none" transform="matrix(6.50211,0,0,6.51684,145.354,177.156)" font-size="34.375" font-weight="400" font-family="MS Shell Dlg 2" font-style="normal" stroke="none">
   <path d="M5.442,88.45 L19.298,80.45" vector-effect="none" fill-rule="nonzero"/>
  </g>
  <g fill="none" stroke-width="0.25" transform="matrix(6.50211,0,0,6.51684,145.354,177.156)" stroke-linejoin="miter" stroke-miterlimit="4" stroke-opacity="1" stroke-linecap="butt" font-size="34.375" font-weight="400" font-family="MS Shell Dlg 2" font-style="normal" stroke="#000000">
   <path d="M5.442,88.45 L19.298,80.45" vector-effect="none" fill-rule="nonzero"/>
  </g>
  <g fill="none" transform="matrix(6.50211,0,0,6.51684,145.354,177.156)" font-size="34.375" font-weight="400" font-family="MS Shell Dlg 2" font-style="normal" stroke="none">
   <path d="M12,72.26 L30.686,61.448" vector-effect="none" fill-rule="nonzero"/>
  </g>
  <g fill="none" stroke-width="0.25" transform="matrix(6.50211,0,0,6.51684,145.354,177.156)" stroke-linejoin="miter" stroke-miterlimit="4" stroke-opacity="1" stroke-linecap="butt" font-size="34.375" font-weight="400" font-family="MS Shell Dlg 2" font-style="normal" stroke="#000000">
   <path d="M12,72.26 L30.686,61.448" vector-effect="none" fill-rule="nonzero"/>
  </g>
  <g fill="none" transform="matrix(6.50211,0,0,6.51684,145.354,177.156)" font-size="34.375" font-weight="400" font-family="MS Shell Dlg 2" font-style="normal" stroke="none">
   <path d="M14.593,65.45 L30.683,56.159" vector-effect="none" fill-rule="nonzero"/>
  </g>
  <g fill="none" stroke-width="0.25" transform="matrix(6.50211,0,0,6.51684,145.354,177.156)" stroke-linejoin="miter" stroke-miterlimit="4" stroke-opacity="1" stroke-linecap="butt" font-size="34.375" font-weight="400" font-family="MS Shell Dlg 2" font-style="normal" stroke="#000000">
   <path d="M14.593,65.45 L30.683,56.159" vector-effect="none" fill-rule="nonzero"/>
  </g>
  <g fill="none" transform="matrix(6.50211,0,0,6.51684,145.354,177.156)" font-size="34.375" font-weight="400" font-family="MS Shell Dlg 2" font-style="normal" stroke="none">
   <path d="M15.343,63.24 L30.686,54.382" vector-effect="none" fill-rule="nonzero"/>
  </g>
  <g fill="none" stroke-width="0.25" transform="matrix(6.50211,0,0,6.51684,145.354,177.156)" stroke-linejoin="miter" stroke-miterlimit="4" stroke-opacity="1" stroke-linecap="butt" font-size="34.375" font-weight="400" font-family="MS Shell Dlg 2" font-style="normal" stroke="#000000">
   <path d="M15.343,63.24 L30.686,54.382" vector-effect="none" fill-rule="nonzero"/>
  </g>
  <g fill="none" transform="matrix(6.50211,0,0,6.51684,145.354,177.156)" font-size="34.375" font-weight="400" font-family="MS Shell Dlg 2" font-style="normal" stroke="none">
   <path d="M16.877,60.58 L30.686,52.608" vector-effect="none" fill-rule="nonzero"/>
  </g>
  <g fill="none" stroke-width="0.25" transform="matrix(6.50211,0,0,6.51684,145.354,177.156)" stroke-linejoin="miter" stroke-miterlimit="4" stroke-opacity="1" stroke-linecap="butt" font-size="34.375" font-weight="400" font-family="MS Shell Dlg 2" font-style="normal" stroke="#000000">
   <path d="M16.877,60.58 L30.686,52.608" vector-effect="none" fill-rule="nonzero"/>
  </g>
  <g fill="none" transform="matrix(6.50211,0,0,6.51684,145.354,177.156)" font-size="34.375" font-weight="400" font-family="MS Shell Dlg 2" font-style="normal" stroke="none">
   <path d="M17.511,58.45 L30.685,50.844" vector-effect="none" fill-rule="nonzero"/>
  </g>
  <g fill="none" stroke-width="0.25" transform="matrix(6.50211,0,0,6.51684,145.354,177.156)" stroke-linejoin="miter" stroke-miterlimit="4" stroke-opacity="1" stroke-linecap="butt" font-size="34.375" font-weight="400" font-family="MS Shell Dlg 2" font-style="normal" stroke="#000000">
   <path d="M17.511,58.45 L30.685,50.844" vector-effect="none" fill-rule="nonzero"/>
  </g>
  <g fill="none" transform="matrix(6.50211,0,0,6.51684,145.354,177.156)" font-size="34.375" font-weight="400" font-family="MS Shell Dlg 2" font-style="normal" stroke="none">
   <path d="M18.412,56.15 L30.686,49.063" vector-effect="none" fill-rule="nonzero"/>
  </g>
  <g fill="none" stroke-width="0.25" transform="matrix(6.50211,0,0,6.51684,145.354,177.156)" stroke-linejoin="miter" stroke-miterlimit="4" stroke-opacity="1" stroke-linecap="butt" font-size="34.375" font-weight="400" font-family="MS Shell Dlg 2" font-style="normal" stroke="#000000">
   <path d="M18.412,56.15 L30.686,49.063" vector-effect="none" fill-rule="nonzero"/>
  </g>
  <g fill="none" transform="matrix(6.50211,0,0,6.51684,145.354,177.156)" font-size="34.375" font-weight="400" font-family="MS Shell Dlg 2" font-style="normal" stroke="none">
   <path d="M19,54.04 L30.427,47.443" vector-effect="none" fill-rule="nonzero"/>
  </g>
  <g fill="none" stroke-width="0.25" transform="matrix(6.50211,0,0,6.51684,145.354,177.156)" stroke-linejoin="miter" stroke-miterlimit="4" stroke-opacity="1" stroke-linecap="butt" font-size="34.375" font-weight="400" font-family="MS Shell Dlg 2" font-style="normal" stroke="#000000">
   <path d="M19,54.04 L30.427,47.443" vector-effect="none" fill-rule="nonzero"/>
  </g>
  <g fill="none" transform="matrix(6.50211,0,0,6.51684,145.354,177.156)" font-size="34.375" font-weight="400" font-family="MS Shell Dlg 2" font-style="normal" stroke="none">
   <path d="M20,51.757 L30.822,45.446" vector-effect="none" fill-rule="nonzero"/>
  </g>
  <g fill="none" stroke-width="0.25" transform="matrix(6.50211,0,0,6.51684,145.354,177.156)" stroke-linejoin="miter" stroke-miterlimit="4" stroke-opacity="1" stroke-linecap="butt" font-size="34.375" font-weight="400" font-family="MS Shell Dlg 2" font-style="normal" stroke="#000000">
   <path d="M20,51.757 L30.822,45.446" vector-effect="none" fill-rule="nonzero"/>
  </g>
  <g fill="none" transform="matrix(6.50211,0,0,6.51684,145.354,177.156)" font-size="34.375" font-weight="400" font-family="MS Shell Dlg 2" font-style="normal" stroke="none">
   <path d="M20.826,49.45 L30.686,43.757" vector-effect="none" fill-rule="nonzero"/>
  </g>
  <g fill="none" stroke-width="0.25" transform="matrix(6.50211,0,0,6.51684,145.354,177.156)" stroke-linejoin="miter" stroke-miterlimit="4" stroke-opacity="1" stroke-linecap="butt" font-size="34.375" font-weight="400" font-family="MS Shell Dlg 2" font-style="normal" stroke="#000000">
   <path d="M20.826,49.45 L30.686,43.757" vector-effect="none" fill-rule="nonzero"/>
  </g>
  <g fill="none" transform="matrix(6.50211,0,0,6.51684,145.354,177.156)" font-size="34.375" font-weight="400" font-family="MS Shell Dlg 2" font-style="normal" stroke="none">
   <path d="M21.48,47.3 L30.686,41.985" vector-effect="none" fill-rule="nonzero"/>
  </g>
  <g fill="none" stroke-width="0.25" transform="matrix(6.50211,0,0,6.51684,145.354,177.156)" stroke-linejoin="miter" stroke-miterlimit="4" stroke-opacity="1" stroke-linecap="butt" font-size="34.375" font-weight="400" font-family="MS Shell Dlg 2" font-style="normal" stroke="#000000">
   <path d="M21.48,47.3 L30.686,41.985" vector-effect="none" fill-rule="nonzero"/>
  </g>
  <g fill="none" transform="matrix(6.50211,0,0,6.51684,145.354,177.156)" font-size="34.375" font-weight="400" font-family="MS Shell Dlg 2" font-style="normal" stroke="none">
   <path d="M23,44.647 L30.686,40.21" vector-effect="none" fill-rule="nonzero"/>
  </g>
  <g fill="none" stroke-width="0.25" transform="matrix(6.50211,0,0,6.51684,145.354,177.156)" stroke-linejoin="miter" stroke-miterlimit="4" stroke-opacity="1" stroke-linecap="butt" font-size="34.375" font-weight="400" font-family="MS Shell Dlg 2" font-style="normal" stroke="#000000">
   <path d="M23,44.647 L30.686,40.21" vector-effect="none" fill-rule="nonzero"/>
  </g>
  <g fill="none" transform="matrix(6.50211,0,0,6.51684,145.354,177.156)" font-size="34.375" font-weight="400" font-family="MS Shell Dlg 2" font-style="normal" stroke="none">
   <path d="M23.744,42.45 L30.672,38.45" vector-effect="none" fill-rule="nonzero"/>
  </g>
  <g fill="none" stroke-width="0.25" transform="matrix(6.50211,0,0,6.51684,145.354,177.156)" stroke-linejoin="miter" stroke-miterlimit="4" stroke-opacity="1" stroke-linecap="butt" font-size="34.375" font-weight="400" font-family="MS Shell Dlg 2" font-style="normal" stroke="#000000">
   <path d="M23.744,42.45 L30.672,38.45" vector-effect="none" fill-rule="nonzero"/>
  </g>
  <g fill="none" transform="matrix(6.50211,0,0,6.51684,145.354,177.156)" font-size="34.375" font-weight="400" font-family="MS Shell Dlg 2" font-style="normal" stroke="none">
   <path d="M24.549,40.21 L30.686,36.667" vector-effect="none" fill-rule="nonzero"/>
  </g>
  <g fill="none" stroke-width="0.25" transform="matrix(6.50211,0,0,6.51684,145.354,177.156)" stroke-linejoin="miter" stroke-miterlimit="4" stroke-opacity="1" stroke-linecap="butt" font-size="34.375" font-weight="400" font-family="MS Shell Dlg 2" font-style="normal" stroke="#000000">
   <path d="M24.549,40.21 L30.686,36.667" vector-effect="none" fill-rule="nonzero"/>
  </g>
  <g fill="none" transform="matrix(6.50211,0,0,6.51684,145.354,177.156)" font-size="34.375" font-weight="400" font-family="MS Shell Dlg 2" font-style="normal" stroke="none">
   <path d="M25,38.18 L30.686,34.897" vector-effect="none" fill-rule="nonzero"/>
  </g>
  <g fill="none" stroke-width="0.25" transform="matrix(6.50211,0,0,6.51684,145.354,177.156)" stroke-linejoin="miter" stroke-miterlimit="4" stroke-opacity="1" stroke-linecap="butt" font-size="34.375" font-weight="400" font-family="MS Shell Dlg 2" font-style="normal" stroke="#000000">
   <path d="M25,38.18 L30.686,34.897" vector-effect="none" fill-rule="nonzero"/>
  </g>
  <g fill="none" transform="matrix(6.50211,0,0,6.51684,145.354,177.156)" font-size="34.375" font-weight="400" font-family="MS Shell Dlg 2" font-style="normal" stroke="none">
   <path d="M26.663,35.446 L30.683,33.123" vector-effect="none" fill-rule="nonzero"/>
  </g>
  <g fill="none" stroke-width="0.25" transform="matrix(6.50211,0,0,6.51684,145.354,177.156)" stroke-linejoin="miter" stroke-miterlimit="4" stroke-opacity="1" stroke-linecap="butt" font-size="34.375" font-weight="400" font-family="MS Shell Dlg 2" font-style="normal" stroke="#000000">
   <path d="M26.663,35.446 L30.683,33.123" vector-effect="none" fill-rule="nonzero"/>
  </g>
  <g fill="none" transform="matrix(6.50211,0,0,6.51684,145.354,177.156)" font-size="34.375" font-weight="400" font-family="MS Shell Dlg 2" font-style="normal" stroke="none">
   <path d="M27.617,33.12 L30.686,31.348" vector-effect="none" fill-rule="nonzero"/>
  </g>
  <g fill="none" stroke-width="0.25" transform="matrix(6.50211,0,0,6.51684,145.354,177.156)" stroke-linejoin="miter" stroke-miterlimit="4" stroke-opacity="1" stroke-linecap="butt" font-size="34.375" font-weight="400" font-family="MS Shell Dlg 2" font-style="normal" stroke="#000000">
   <path d="M27.617,33.12 L30.686,31.348" vector-effect="none" fill-rule="nonzero"/>
  </g>
  <g fill="none" transform="matrix(6.50211,0,0,6.51684,145.354,177.156)" font-size="34.375" font-weight="400" font-family="MS Shell Dlg 2" font-style="normal" stroke="none">
   <path d="M28,31.13 L30.686,29.579" vector-effect="none" fill-rule="nonzero"/>
  </g>
  <g fill="none" stroke-width="0.25" transform="matrix(6.50211,0,0,6.51684,145.354,177.156)" stroke-linejoin="miter" stroke-miterlimit="4" stroke-opacity="1" stroke-linecap="butt" font-size="34.375" font-weight="400" font-family="MS Shell Dlg 2" font-style="normal" stroke="#000000">
   <path d="M28,31.13 L30.686,29.579" vector-effect="none" fill-rule="nonzero"/>
  </g>
  <g fill="none" transform="matrix(6.50211,0,0,6.51684,145.354,177.156)" font-size="34.375" font-weight="400" font-family="MS Shell Dlg 2" font-style="normal" stroke="none">
   <path d="M29.15,28.694 L30.684,27.808" vector-effect="none" fill-rule="nonzero"/>
  </g>
  <g fill="none" stroke-width="0.25" transform="matrix(6.50211,0,0,6.51684,145.354,177.156)" stroke-linejoin="miter" stroke-miterlimit="4" stroke-opacity="1" stroke-linecap="butt" font-size="34.375" font-weight="400" font-family="MS Shell Dlg 2" font-style="normal" stroke="#000000">
   <path d="M29.15,28.694 L30.684,27.808" vector-effect="none" fill-rule="nonzero"/>
  </g>
  <g fill="none" transform="matrix(6.50211,0,0,6.51684,145.354,177.156)" font-size="34.375" font-weight="400" font-family="MS Shell Dlg 2" font-style="normal" stroke="none">
   <path d="M13,69.909 L30.686,59.698" vector-effect="none" fill-rule="nonzero"/>
  </g>
  <g fill="none" stroke-width="0.25" transform="matrix(6.50211,0,0,6.51684,145.354,177.156)" stroke-linejoin="miter" stroke-miterlimit="4" stroke-opacity="1" stroke-linecap="butt" font-size="34.375" font-weight="400" font-family="MS Shell Dlg 2" font-style="normal" stroke="#000000">
   <path d="M13,69.909 L30.686,59.698" vector-effect="none" fill-rule="nonzero"/>
  </g>
  <g fill="none" transform="matrix(6.50211,0,0,6.51684,145.354,177.156)" font-size="34.375" font-weight="400" font-family="MS Shell Dlg 2" font-style="normal" stroke="none">
   <path d="M9.206,79.19 L30.686,66.788" vector-effect="none" fill-rule="nonzero"/>
  </g>
  <g fill="none" stroke-width="0.25" transform="matrix(6.50211,0,0,6.51684,145.354,177.156)" stroke-linejoin="miter" stroke-miterlimit="4" stroke-opacity="1" stroke-linecap="butt" font-size="34.375" font-weight="400" font-family="MS Shell Dlg 2" font-style="normal" stroke="#000000">
   <path d="M9.206,79.19 L30.686,66.788" vector-effect="none" fill-rule="nonzero"/>
  </g>
  <g fill="none" transform="matrix(6.50211,0,0,6.51684,145.354,177.156)" font-size="34.375" font-weight="400" font-family="MS Shell Dlg 2" font-style="normal" stroke="none">
   <path d="M8.36,81.45 L30.686,68.56" vector-effect="none" fill-rule="nonzero"/>
  </g>
  <g fill="none" stroke-width="0.25" transform="matrix(6.50211,0,0,6.51684,145.354,177.156)" stroke-linejoin="miter" stroke-miterlimit="4" stroke-opacity="1" stroke-linecap="butt" font-size="34.375" font-weight="400" font-family="MS Shell Dlg 2" font-style="normal" stroke="#000000">
   <path d="M8.36,81.45 L30.686,68.56" vector-effect="none" fill-rule="nonzero"/>
  </g>
  <g fill="none" transform="matrix(6.50211,0,0,6.51684,145.354,177.156)" font-size="34.375" font-weight="400" font-family="MS Shell Dlg 2" font-style="normal" stroke="none">
   <path d="M7.671,83.62 L27.617,72.104" vector-effect="none" fill-rule="nonzero"/>
  </g>
  <g fill="none" stroke-width="0.25" transform="matrix(6.50211,0,0,6.51684,145.354,177.156)" stroke-linejoin="miter" stroke-miterlimit="4" stroke-opacity="1" stroke-linecap="butt" font-size="34.375" font-weight="400" font-family="MS Shell Dlg 2" font-style="normal" stroke="#000000">
   <path d="M7.671,83.62 L27.617,72.104" vector-effect="none" fill-rule="nonzero"/>
  </g>
  <g fill="none" transform="matrix(6.50211,0,0,6.51684,145.354,177.156)" font-size="34.375" font-weight="400" font-family="MS Shell Dlg 2" font-style="normal" stroke="none">
   <path d="M6.137,86.27 L23.157,76.443" vector-effect="none" fill-rule="nonzero"/>
  </g>
  <g fill="none" stroke-width="0.25" transform="matrix(6.50211,0,0,6.51684,145.354,177.156)" stroke-linejoin="miter" stroke-miterlimit="4" stroke-opacity="1" stroke-linecap="butt" font-size="34.375" font-weight="400" font-family="MS Shell Dlg 2" font-style="normal" stroke="#000000">
   <path d="M6.137,86.27 L23.157,76.443" vector-effect="none" fill-rule="nonzero"/>
  </g>
  <g fill="none" transform="matrix(6.50211,0,0,6.51684,145.354,177.156)" font-size="34.375" font-weight="400" font-family="MS Shell Dlg 2" font-style="normal" stroke="none">
   <path d="M10,76.956 L30.686,65.013" vector-effect="none" fill-rule="nonzero"/>
  </g>
  <g fill="none" stroke-width="0.25" transform="matrix(6.50211,0,0,6.51684,145.354,177.156)" stroke-linejoin="miter" stroke-miterlimit="4" stroke-opacity="1" stroke-linecap="butt" font-size="34.375" font-weight="400" font-family="MS Shell Dlg 2" font-style="normal" stroke="#000000">
   <path d="M10,76.956 L30.686,65.013" vector-effect="none" fill-rule="nonzero"/>
  </g>
  <g fill="none" transform="matrix(6.50211,0,0,6.51684,145.354,177.156)" font-size="34.375" font-weight="400" font-family="MS Shell Dlg 2" font-style="normal" stroke="none">
   <path d="M11.279,74.45 L30.686,63.245" vector-effect="none" fill-rule="nonzero"/>
  </g>
  <g fill="none" stroke-width="0.25" transform="matrix(6.50211,0,0,6.51684,145.354,177.156)" stroke-linejoin="miter" stroke-miterlimit="4" stroke-opacity="1" stroke-linecap="butt" font-size="34.375" font-weight="400" font-family="MS Shell Dlg 2" font-style="normal" stroke="#000000">
   <path d="M11.279,74.45 L30.686,63.245" vector-effect="none" fill-rule="nonzero"/>
  </g>
  <g fill="none" transform="matrix(6.50211,0,0,6.51684,145.354,177.156)" font-size="34.375" font-weight="400" font-family="MS Shell Dlg 2" font-style="normal" stroke="none">
   <path d="M14,67.56 L30.686,57.926" vector-effect="none" fill-rule="nonzero"/>
  </g>
  <g fill="none" stroke-width="0.25" transform="matrix(6.50211,0,0,6.51684,145.354,177.156)" stroke-linejoin="miter" stroke-miterlimit="4" stroke-opacity="1" stroke-linecap="butt" font-size="34.375" font-weight="400" font-family="MS Shell Dlg 2" font-style="normal" stroke="#000000">
   <path d="M14,67.56 L30.686,57.926" vector-effect="none" fill-rule="nonzero"/>
  </g>
  <g fill="none" transform="matrix(6.50211,0,0,6.51684,145.354,202.109)" font-size="34.375" font-weight="400" font-family="MS Shell Dlg 2" font-style="normal" stroke="none">
   <path d="M30.562,65.744 L30.562,22.178" vector-effect="none" fill-rule="nonzero"/>
  </g>
  <g fill="none" stroke-width="0.25" transform="matrix(6.50211,0,0,6.51684,145.354,202.109)" stroke-linejoin="miter" stroke-miterlimit="4" stroke-opacity="1" stroke-linecap="butt" font-size="34.375" font-weight="400" font-family="MS Shell Dlg 2" font-style="normal" stroke="#000000">
   <path d="M30.562,65.744 L30.562,22.178" vector-effect="none" fill-rule="nonzero"/>
  </g>
  <g fill="none" stroke-width="1" transform="matrix(11.8081,0,0,11.8081,145.354,331.083)" stroke-linejoin="bevel" stroke-opacity="1" stroke-linecap="square" font-size="34.375" font-weight="400" font-family="MS Shell Dlg 2" font-style="normal" stroke="#000000"/>
  <g fill="none" stroke-width="1" transform="matrix(0.999751,0,0,0.999751,145.354,331.083)" stroke-linejoin="bevel" stroke-opacity="1" stroke-linecap="square" font-size="34.375" font-weight="400" font-family="MS Shell Dlg 2" font-style="normal" stroke="#000000"/>
  <g fill="none" stroke-width="1" transform="matrix(11.8081,0,0,11.8081,145.354,331.083)" stroke-linejoin="bevel" stroke-opacity="1" stroke-linecap="square" font-size="34.375" font-weight="400" font-family="MS Shell Dlg 2" font-style="normal" stroke="#000000"/>
  <g fill="none" stroke-width="1" transform="matrix(11.8081,0,0,11.8081,145.354,331.083)" stroke-linejoin="bevel" stroke-opacity="1" stroke-linecap="square" font-size="34.375" font-weight="400" font-family="MS Shell Dlg 2" font-style="normal" stroke="#000000"/>
  <g fill="none" stroke-width="1" transform="matrix(1,0,0,1,0,0)" stroke-linejoin="bevel" stroke-opacity="1" stroke-linecap="square" font-size="34.375" font-weight="400" font-family="MS Shell Dlg 2" font-style="normal" stroke="#000000"/>
 </g>
 <metadata>
  <rdf:RDF xmlns:rdfs="http://www.w3.org/2000/01/rdf-schema#" xmlns:dc="http://purl.org/dc/elements/1.1/" xmlns:rdf="http://www.w3.org/1999/02/22-rdf-syntax-ns#">
   <rdf:Description dc:date="2021-05-11T09:29:51" dc:format="image/svg+xml" dc:title="" dc:description="" dc:identifier="">
    <dc:creator>
     <rdf:Bag>
      <rdf:li>Nguy?n Nhu Ý</rdf:li>
     </rdf:Bag>
    </dc:creator>
    <dc:publisher>
     <rdf:Bag>
      <rdf:li>QGIS 3.16.6-Hannover</rdf:li>
     </rdf:Bag>
    </dc:publisher>
    <dc:subject>
     <rdf:Bag/>
    </dc:subject>
   </rdf:Description>
   <cc:Work rdf:about="">
    <dc:format>image/svg+xml</dc:format>
    <dc:title></dc:title>
    <dc:date>2021-05-11T09:29:51</dc:date>
    <dc:identifier></dc:identifier>
    <dc:description></dc:description>
    <dc:creator>
     <cc:Agent>
      <dc:title>Nguy?n Nhu Ý</dc:title>
     </cc:Agent>
    </dc:creator>
    <dc:publisher>
     <cc:Agent>
      <dc:title>QGIS 3.16.6-Hannover</dc:title>
     </cc:Agent>
    </dc:publisher>
   </cc:Work>
  </rdf:RDF>
 </metadata>
</svg>
